<svg width="18" height="18" viewBox="0 0 18 18" fill="none" xmlns="http://www.w3.org/2000/svg">
<path d="M12.7759 8.34375H9.52759H8.2168H4.96838C4.60693 8.34375 4.31299 8.63776 4.31299 8.99915C4.31299 9.36047 4.60693 9.65454 4.96838 9.65454H8.2168H9.52759H12.7759C13.1373 9.65454 13.4314 9.36047 13.4314 8.99915C13.4314 8.63776 13.1373 8.34375 12.7759 8.34375Z" fill="#D03B37"/>
<path d="M16.5515 5.75415C16.1317 4.7616 15.5309 3.87036 14.7655 3.1051C14.0002 2.33984 13.109 1.73901 12.1166 1.31921C11.0887 0.884521 9.99719 0.664062 8.87231 0.664062C7.74744 0.664062 6.65588 0.884521 5.62805 1.31921C4.63562 1.73901 3.74438 2.33984 2.97913 3.1051C2.21399 3.87036 1.61304 4.7616 1.19324 5.75415C0.758545 6.78186 0.538086 7.87341 0.538086 8.99829C0.538086 10.1232 0.758545 11.2147 1.19324 12.2426C1.61304 13.235 2.21399 14.1263 2.97913 14.8915C3.74438 15.6568 4.63562 16.2577 5.62805 16.6774C6.65588 17.1121 7.74744 17.3325 8.87231 17.3325C9.99719 17.3325 11.0887 17.1121 12.1166 16.6774C13.109 16.2577 14.0002 15.6568 14.7655 14.8915C15.5309 14.1263 16.1317 13.235 16.5515 12.2426C16.9862 11.2147 17.2065 10.1232 17.2065 8.99829C17.2065 7.87341 16.9862 6.78186 16.5515 5.75415ZM8.87231 16.4626C4.75647 16.4626 1.40796 13.1141 1.40796 8.99829C1.40796 4.88245 4.75647 1.53394 8.87231 1.53394C12.9882 1.53394 16.3367 4.88245 16.3367 8.99829C16.3367 13.1141 12.9882 16.4626 8.87231 16.4626Z" fill="#D03B37"/>
</svg>
