<svg width="18" height="18" viewBox="0 0 18 18" fill="none" xmlns="http://www.w3.org/2000/svg">
<path d="M13.0308 8.34131H9.78241V5.0929C9.78241 4.73151 9.4884 4.4375 9.12701 4.4375C8.76562 4.4375 8.47162 4.73151 8.47162 5.0929V8.34131H5.22327C4.86188 8.34131 4.56787 8.63531 4.56787 8.9967C4.56787 9.35809 4.86188 9.6521 5.22327 9.6521H8.47162V12.9005C8.47162 13.2618 8.76562 13.5558 9.12701 13.5558C9.4884 13.5558 9.78241 13.2618 9.78241 12.9005V9.6521H13.0308C13.3922 9.6521 13.6862 9.35809 13.6862 8.9967C13.6862 8.63531 13.3922 8.34131 13.0308 8.34131Z" fill="#D03B37"/>
<path d="M16.8063 5.75415C16.3865 4.7616 15.7856 3.87036 15.0204 3.1051C14.2551 2.33984 13.3639 1.73901 12.3714 1.31921C11.3436 0.884521 10.2521 0.664062 9.1272 0.664062C8.00229 0.664062 6.9108 0.884521 5.88303 1.31921C4.89053 1.73901 3.99927 2.33984 3.23401 3.1051C2.46875 3.87036 1.86789 4.7616 1.44809 5.75415C1.0134 6.78186 0.792969 7.87341 0.792969 8.99829C0.792969 10.1232 1.0134 11.2147 1.44809 12.2426C1.86789 13.235 2.46875 14.1263 3.23401 14.8915C3.99927 15.6568 4.89053 16.2577 5.88303 16.6774C6.9108 17.1121 8.00229 17.3325 9.1272 17.3325C10.2521 17.3325 11.3436 17.1121 12.3714 16.6774C13.3639 16.2577 14.2551 15.6568 15.0204 14.8915C15.7856 14.1263 16.3865 13.235 16.8063 12.2426C17.241 11.2147 17.4614 10.1232 17.4614 8.99829C17.4614 7.87341 17.241 6.78186 16.8063 5.75415ZM9.1272 16.4626C5.01132 16.4626 1.66284 13.1141 1.66284 8.99829C1.66284 4.88245 5.01132 1.53394 9.1272 1.53394C13.2431 1.53394 16.5916 4.88245 16.5916 8.99829C16.5916 13.1141 13.2431 16.4626 9.1272 16.4626Z" fill="#D03B37"/>
</svg>
