<svg width="21" height="14" viewBox="0 0 21 14" fill="none" xmlns="http://www.w3.org/2000/svg">
<path d="M3.56836 5.85361C3.56836 3.03065 5.85682 0.742188 8.67979 0.742188H15.1285C17.9515 0.742188 20.24 3.03065 20.24 5.85361C20.24 8.67658 17.9515 10.965 15.1285 10.965H8.67978C5.85682 10.965 3.56836 8.67658 3.56836 5.85361Z" fill="#D03B37"/>
<path d="M19.0768 0.986115C19.5799 0.986115 19.9878 1.3843 19.9878 1.87541V9.82596C19.9878 10.3169 19.5799 10.715 19.0768 10.715H4.73335C4.2302 10.715 3.82232 10.3169 3.82232 9.82596V1.87541C3.82232 1.3843 4.2302 0.986115 4.73335 0.986115H19.0768ZM19.0768 0.492188H4.73335C3.95189 0.492188 3.31616 1.11276 3.31616 1.87541V9.82596C3.31616 10.5886 3.95189 11.2091 4.73335 11.2091H19.0768C19.8582 11.2091 20.4939 10.5886 20.4939 9.82596V1.87541C20.4939 1.11276 19.8582 0.492188 19.0768 0.492188Z" fill="#D03B37"/>
<path d="M4.73127 11.4609C3.81028 11.4609 3.06104 10.7296 3.06104 9.8308V1.88019C3.06104 0.981361 3.81028 0.25 4.73127 0.25H19.0747C19.9957 0.25 20.7449 0.981361 20.7449 1.88019V9.8308C20.7449 10.7296 19.9957 11.4609 19.0747 11.4609H4.73127ZM4.73127 1.73203C4.64756 1.73203 4.57946 1.79855 4.57946 1.88019V9.8308C4.57946 9.91243 4.64756 9.97889 4.73127 9.97889H19.0747C19.1584 9.97889 19.2265 9.91243 19.2265 9.8308V1.88019C19.2265 1.79855 19.1584 1.73203 19.0747 1.73203H4.73127Z" fill="white"/>
<path d="M19.0756 0.494053C19.857 0.494053 20.4927 1.11457 20.4927 1.87721V9.8277C20.4927 10.5905 19.857 11.2109 19.0756 11.2109H4.73212C3.95067 11.2109 3.31495 10.5905 3.31495 9.8277V1.87721C3.31495 1.11457 3.95067 0.494053 4.73212 0.494053H19.0756ZM4.73212 10.2229H19.0756C19.2988 10.2229 19.4804 10.0456 19.4804 9.8277V1.87721C19.4804 1.65928 19.2988 1.48197 19.0756 1.48197H4.73212C4.50888 1.48197 4.32727 1.65928 4.32727 1.87721V9.8277C4.32727 10.0456 4.50888 10.2229 4.73212 10.2229ZM19.0756 0H4.73212C3.67162 0 2.80884 0.842084 2.80884 1.87721V9.8277C2.80884 10.8628 3.67162 11.7049 4.73212 11.7049H19.0756C20.1361 11.7049 20.9989 10.8628 20.9989 9.8277V1.87721C20.9989 0.842084 20.1361 0 19.0756 0ZM4.83336 1.97609H18.9743V9.72895H4.83336V1.97609Z" fill="#D03B37"/>
<rect x="3.82397" y="3.28125" width="16.1655" height="2.2684" fill="white"/>
<path d="M1.0144 6.28125C1.0144 4.62439 2.35755 3.28125 4.0144 3.28125H14.1799C15.8367 3.28125 17.1799 4.6244 17.1799 6.28125V10.0101C17.1799 11.667 15.8367 13.0101 14.1799 13.0101H4.01441C2.35755 13.0101 1.0144 11.6669 1.0144 10.0101V6.28125Z" fill="#D03B37"/>
<path d="M1.92365 13.754C1.00267 13.754 0.253418 13.0225 0.253418 12.1236V4.17303C0.253418 3.27427 1.00267 2.54297 1.92365 2.54297H16.2671C17.1881 2.54297 17.9373 3.27427 17.9373 4.17303V12.1236C17.9373 13.0225 17.1881 13.754 16.2671 13.754H1.92365ZM1.92365 4.02481C1.83994 4.02481 1.77184 4.0914 1.77184 4.17303V12.1236C1.77184 12.2054 1.83994 12.2717 1.92365 12.2717H16.2671C16.3508 12.2717 16.4189 12.2054 16.4189 12.1236V4.17303C16.4189 4.0914 16.3508 4.02481 16.2671 4.02481H1.92365Z" fill="white"/>
<path d="M16.268 2.79087C17.0493 2.79087 17.6851 3.41138 17.6851 4.17402V12.1246C17.6851 12.8873 17.0493 13.5077 16.268 13.5077H1.9245C1.14305 13.5077 0.50732 12.8873 0.50732 12.1246V4.17402C0.50732 3.41138 1.14305 2.79087 1.9245 2.79087H16.268ZM1.9245 12.5198H16.268C16.4912 12.5198 16.6728 12.3425 16.6728 12.1246V4.17402C16.6728 3.95615 16.4912 3.77891 16.268 3.77891H1.9245C1.70128 3.77891 1.51964 3.95615 1.51964 4.17402V12.1246C1.51964 12.3425 1.70128 12.5198 1.9245 12.5198ZM16.268 2.29688H1.9245C0.864002 2.29688 0.0012207 3.13902 0.0012207 4.17402V12.1246C0.0012207 13.1597 0.864002 14.0017 1.9245 14.0017H16.268C17.3285 14.0017 18.1912 13.1597 18.1912 12.1246V4.17402C18.1912 3.13902 17.3285 2.29688 16.268 2.29688ZM2.02575 4.2729H16.1667V12.0258H2.02575V4.2729Z" fill="#D03B37"/>
<path d="M13.8823 10.4232C13.8823 10.9999 13.4033 11.4675 12.8123 11.4675C12.2215 11.4675 11.7424 10.9999 11.7424 10.4232C11.7424 9.8465 12.2215 9.37891 12.8123 9.37891C13.4033 9.37891 13.8823 9.8465 13.8823 10.4232Z" fill="white"/>
<path d="M15.1724 10.4232C15.1724 10.9999 14.6933 11.4675 14.1024 11.4675C13.5115 11.4675 13.0325 10.9999 13.0325 10.4232C13.0325 9.8465 13.5115 9.37891 14.1024 9.37891C14.6933 9.37891 15.1724 9.8465 15.1724 10.4232Z" fill="white"/>
<rect x="3.02124" y="7.53125" width="2.7596" height="0.723438" fill="white"/>
<rect x="12.4097" y="7.53125" width="2.7596" height="0.723438" fill="white"/>
<rect x="9.28223" y="7.53125" width="2.7596" height="0.723438" fill="white"/>
<rect x="6.15088" y="7.53125" width="2.75965" height="0.723438" fill="white"/>
</svg>
