<svg width="14" height="18" viewBox="0 0 14 18" fill="none" xmlns="http://www.w3.org/2000/svg">
<path d="M10.2065 0.686405C9.99927 0.934618 9.99927 1.33802 10.2065 1.58624L11.6885 3.36364H1.03062C0.737439 3.36364 0.5 3.64876 0.5 4.00002C0.5 4.35161 0.737439 4.63635 1.03062 4.63635H11.6885L10.2065 6.41381C9.99927 6.66196 9.99927 7.06543 10.2065 7.31364C10.4137 7.56212 10.7496 7.56212 10.9568 7.31364L13.3445 4.44991C13.4483 4.32551 13.5 4.16296 13.5 4.00002C13.5 3.83709 13.4483 3.67448 13.3445 3.55008L10.9568 0.686405C10.7496 0.437865 10.4137 0.437865 10.2065 0.686405Z" fill="white"/>
<path d="M3.04306 10.6864L0.655556 13.5494C0.630873 13.5794 0.608591 13.6119 0.589227 13.6471C0.58019 13.663 0.573826 13.6805 0.566403 13.6975C0.557651 13.7165 0.547555 13.7359 0.540404 13.7562C0.532968 13.7776 0.528734 13.7999 0.523699 13.8218C0.518923 13.8396 0.513346 13.8568 0.510157 13.875C0.496614 13.9577 0.496614 14.0423 0.510157 14.1247C0.513346 14.1432 0.519181 14.1604 0.523699 14.1785C0.528734 14.2001 0.532968 14.2221 0.540404 14.2437C0.547826 14.2644 0.557651 14.2835 0.566675 14.3032C0.574097 14.3198 0.58019 14.337 0.589227 14.3529C0.608591 14.3879 0.630873 14.4206 0.655556 14.4502L3.04306 17.3136C3.25028 17.5621 3.58615 17.5621 3.79337 17.3136C3.8971 17.1892 3.94882 17.0266 3.94882 16.8637C3.94882 16.7008 3.8971 16.5382 3.79337 16.4138L2.31134 14.6363H12.9694C13.2625 14.6363 13.5 14.3516 13.5 14C13.5 13.6488 13.2625 13.3636 12.9694 13.3636H2.31134L3.79337 11.5862C3.8971 11.4618 3.94882 11.2992 3.94882 11.1364C3.94882 10.9734 3.8971 10.8108 3.79337 10.6864C3.58615 10.4379 3.25028 10.4379 3.04306 10.6864Z" fill="white"/>
</svg>
