<svg xmlns="http://www.w3.org/2000/svg" width="14" height="14" viewBox="0 0 14 14">
  <g id="Group_21864" data-name="Group 21864" transform="translate(-1665 -463)">
    <circle id="Ellipse_104" data-name="Ellipse 104" cx="7" cy="7" r="7" transform="translate(1665 463)" fill="#707070"/>
    <g id="Group_21862" data-name="Group 21862" transform="translate(751.754 -318.023)">
      <g id="Group_21860" data-name="Group 21860" transform="translate(919.246 784.024)">
        <path id="Path_7677" data-name="Path 7677" d="M920.7,784.524h0a.953.953,0,0,0-.95,1.022l.53,4.045c.025.342.077.607.42.607h0c.343,0,.4-.265.42-.607l.53-4.045A.953.953,0,0,0,920.7,784.524Z" transform="translate(-919.741 -784.518)" fill="#fff"/>
        <path id="Path_7678" data-name="Path 7678" d="M920.2,789.71c-.352,0-.4-.277-.426-.612l-.53-4.045a.958.958,0,1,1,1.912,0l-.53,4.046C920.606,789.433,920.557,789.71,920.2,789.71Zm0-5.674a.947.947,0,0,0-.944,1.016l.53,4.045c.024.329.072.6.414.6s.39-.272.414-.6l.53-4.046a.947.947,0,0,0-.944-1.016Z" transform="translate(-919.246 -784.024)" fill="#fff"/>
      </g>
      <g id="Group_21861" data-name="Group 21861" transform="translate(919.447 790.163)">
        <circle id="Ellipse_105" data-name="Ellipse 105" cx="0.58" cy="0.58" r="0.58" transform="translate(0 1.072) rotate(-67.5)" fill="#fff"/>
        <path id="Path_7679" data-name="Path 7679" d="M951.222,1316.866a.586.586,0,1,1,.586-.586A.587.587,0,0,1,951.222,1316.866Zm0-1.16a.574.574,0,1,0,.574.574A.575.575,0,0,0,951.222,1315.706Z" transform="translate(-950.464 -1315.522)" fill="#fff"/>
      </g>
    </g>
  </g>
</svg>
