<svg width="20" height="14" viewBox="0 0 20 14" fill="none" xmlns="http://www.w3.org/2000/svg">
<path fill-rule="evenodd" clip-rule="evenodd" d="M13.5706 7.06347C12.0709 4.99576 9.59085 3.64453 6.78514 3.64453C3.97949 3.64453 1.49936 4.99576 -0.000244141 7.06347C1.49936 9.13108 3.97949 10.4823 6.78514 10.4823C9.59085 10.4823 12.0709 9.13108 13.5706 7.06347ZM6.78514 5.35395C7.75918 5.35395 8.54883 6.11924 8.54883 7.06347C8.54883 8.00745 7.75918 8.77289 6.78514 8.77289C5.81117 8.77289 5.02164 8.00745 5.02164 7.06347C5.02164 6.11924 5.81117 5.35395 6.78514 5.35395ZM6.78514 6.25489C7.24584 6.25489 7.61939 6.61687 7.61939 7.06347C7.61939 7.50994 7.24584 7.87195 6.78514 7.87195C6.32456 7.87195 5.95101 7.50994 5.95101 7.06347C5.95101 6.61687 6.32456 6.25489 6.78514 6.25489ZM11.9905 7.06347C10.6636 5.6565 8.78648 4.84119 6.78514 4.84119C4.78393 4.84119 2.90683 5.6565 1.57976 7.06347C2.90683 8.47034 4.78393 9.28565 6.78514 9.28565C8.78641 9.28565 10.6636 8.47034 11.9905 7.06347Z" fill="white"/>
<path d="M11.2478 1.31247C11.2478 0.863755 11.6116 0.5 12.0603 0.5H19.188C19.6367 0.5 20.0004 0.863755 20.0004 1.31247C20.0004 1.76118 19.6367 2.12494 19.188 2.12494H12.0603C11.6116 2.12494 11.2478 1.76118 11.2478 1.31247Z" fill="white"/>
<path d="M11.2478 12.6875C11.2478 12.2388 11.6116 11.875 12.0603 11.875H19.188C19.6367 11.875 20.0004 12.2388 20.0004 12.6875C20.0004 13.1362 19.6367 13.4999 19.188 13.4999H12.0603C11.6116 13.4999 11.2478 13.1362 11.2478 12.6875Z" fill="white"/>
<path d="M13.5818 5.37497C13.5818 4.92625 13.9455 4.5625 14.3943 4.5625H19.187C19.6357 4.5625 19.9994 4.92625 19.9994 5.37497C19.9994 5.82368 19.6357 6.18744 19.187 6.18744H14.3943C13.9455 6.18744 13.5818 5.82368 13.5818 5.37497Z" fill="white"/>
<path d="M13.5818 8.62497C13.5818 8.17625 13.9455 7.8125 14.3943 7.8125H19.187C19.6357 7.8125 19.9994 8.17625 19.9994 8.62497C19.9994 9.07368 19.6357 9.43744 19.187 9.43744H14.3943C13.9455 9.43744 13.5818 9.07368 13.5818 8.62497Z" fill="white"/>
</svg>
