<?xml version="1.0" encoding="UTF-8"?> <svg xmlns="http://www.w3.org/2000/svg" width="21" height="21" viewBox="0 0 21 21" fill="none"><path d="M17.0703 3.27734C18.957 5.16406 20.125 7.63477 20.125 10.3301C20.125 15.8105 15.543 20.3027 10.0176 20.3027C8.35547 20.3027 6.73828 19.8535 5.25586 19.0898L0 20.4375L1.39258 15.2715C0.539062 13.7891 0.0449219 12.082 0.0449219 10.2852C0.0449219 4.80469 4.53711 0.3125 10.0176 0.3125C12.7129 0.3125 15.2285 1.39062 17.0703 3.27734ZM10.0176 18.5957C14.5996 18.5957 18.418 14.8672 18.418 10.3301C18.418 8.08398 17.4746 6.01758 15.9023 4.44531C14.3301 2.87305 12.2637 2.01953 10.0625 2.01953C5.48047 2.01953 1.75195 5.74805 1.75195 10.2852C1.75195 11.8574 2.20117 13.3848 3.00977 14.7324L3.23438 15.0469L2.38086 18.1016L5.52539 17.248L5.79492 17.4277C7.09766 18.1914 8.53516 18.5957 10.0176 18.5957ZM14.5996 12.3965C14.8242 12.5312 15.0039 12.5762 15.0488 12.7109C15.1387 12.8008 15.1387 13.2949 14.9141 13.8789C14.6895 14.4629 13.7012 15.002 13.252 15.0469C12.4434 15.1816 11.8145 15.1367 10.2422 14.418C7.72656 13.3398 6.10938 10.8242 5.97461 10.6895C5.83984 10.5098 4.98633 9.3418 4.98633 8.08398C4.98633 6.87109 5.61523 6.28711 5.83984 6.01758C6.06445 5.74805 6.33398 5.70312 6.51367 5.70312C6.64844 5.70312 6.82812 5.70312 6.96289 5.70312C7.14258 5.70312 7.32227 5.6582 7.54688 6.15234C7.72656 6.64648 8.26562 7.85938 8.31055 7.99414C8.35547 8.12891 8.40039 8.26367 8.31055 8.44336C7.86133 9.38672 7.32227 9.3418 7.5918 9.79102C8.58008 11.4531 9.52344 12.0371 11.0059 12.7559C11.2305 12.8906 11.3652 12.8457 11.5449 12.7109C11.6797 12.5312 12.1738 11.9473 12.3086 11.7227C12.4883 11.4531 12.668 11.498 12.8926 11.5879C13.1172 11.6777 14.3301 12.2617 14.5996 12.3965Z" fill="#075E54"></path></svg> 