<?xml version="1.0" encoding="UTF-8"?> <svg xmlns="http://www.w3.org/2000/svg" width="25" height="24" viewBox="0 0 25 24" fill="none"><path d="M11.9219 17.4512C11.877 17.4512 11.877 17.4062 11.832 17.4062L8.50781 13.0938H3.65625C4.01562 17.5859 7.47461 21.1797 11.9219 21.6738V17.4512ZM14.0781 17.4512V21.6738C18.4805 21.1797 21.9395 17.5859 22.2988 13.0938H17.4473L14.123 17.4062C14.0781 17.4062 14.0781 17.4512 14.0781 17.4512ZM17.3125 10.9375H22.209C21.5352 6.49023 17.6719 3.03125 13 3.03125C8.32812 3.03125 4.41992 6.49023 3.74609 10.9375H8.6875L9.00195 10.3086C9.22656 9.81445 9.7207 9.5 10.2598 9.5H15.6953C16.2344 9.5 16.7285 9.81445 16.9531 10.3086L17.3125 10.9375ZM13 23.875C8.86719 23.875 5.09375 21.7188 3.02734 18.125C0.960938 14.5762 0.960938 10.2188 3.02734 6.625C5.09375 3.07617 8.86719 0.875 13 0.875C17.0879 0.875 20.8613 3.07617 22.9277 6.625C24.9941 10.2188 24.9941 14.5762 22.9277 18.125C20.8613 21.7188 17.0879 23.875 13 23.875Z" fill="#F7F7F7"></path></svg> 